<svg width="32" height="32" viewBox="0 0 32 32" fill="none" xmlns="http://www.w3.org/2000/svg">
  <!-- Background circle with gradient -->
  <defs>
    <linearGradient id="faviconGradient" x1="0%" y1="0%" x2="100%" y2="100%">
      <stop offset="0%" style="stop-color:#3b82f6;stop-opacity:1" />
      <stop offset="50%" style="stop-color:#8b5cf6;stop-opacity:1" />
      <stop offset="100%" style="stop-color:#4f46e5;stop-opacity:1" />
    </linearGradient>
    <linearGradient id="rocketGradient" x1="0%" y1="0%" x2="100%" y2="100%">
      <stop offset="0%" style="stop-color:#ffffff;stop-opacity:1" />
      <stop offset="100%" style="stop-color:#f3f4f6;stop-opacity:1" />
    </linearGradient>
  </defs>
  
  <!-- Main background circle -->
  <circle cx="16" cy="16" r="15" fill="url(#faviconGradient)" stroke="#1e293b" stroke-width="1"/>
  
  <!-- Pixel grid pattern overlay -->
  <defs>
    <pattern id="pixelGrid" x="0" y="0" width="4" height="4" patternUnits="userSpaceOnUse">
      <rect width="4" height="4" fill="none" stroke="white" stroke-width="0.2" opacity="0.3"/>
    </pattern>
  </defs>
  <rect x="2" y="2" width="28" height="28" rx="15" fill="url(#pixelGrid)" />
  
  <!-- Rocket icon -->
  <g transform="translate(8, 6)">
    <!-- Rocket body -->
    <path d="M8 16 L8 20 L12 20 L12 16 Z" fill="url(#rocketGradient)" opacity="0.95"/>
    <!-- Rocket nose -->
    <path d="M8 12 L10 16 L12 12 Z" fill="url(#rocketGradient)" opacity="0.95"/>
    <!-- Rocket fins -->
    <path d="M6 18 L8 20 L8 18 Z" fill="url(#rocketGradient)" opacity="0.8"/>
    <path d="M12 18 L14 20 L12 20 Z" fill="url(#rocketGradient)" opacity="0.8"/>
    <!-- Rocket window -->
    <circle cx="10" cy="16" r="1" fill="#3b82f6" opacity="0.8"/>
  </g>
  
  <!-- Sparkle effects -->
  <path d="M16 4 L16.5 6 L17 4 L16.5 2 Z" fill="#fbbf24" opacity="0.9"/>
  <path d="M16 28 L16.5 30 L17 28 L16.5 26 Z" fill="#10b981" opacity="0.9"/>
  <path d="M4 16 L6 16.5 L4 17 L2 16.5 Z" fill="#ef4444" opacity="0.9"/>
  <path d="M28 16 L30 16.5 L28 17 L26 16.5 Z" fill="#8b5cf6" opacity="0.9"/>
  
  <!-- Glow effect -->
  <circle cx="16" cy="16" r="14" fill="none" stroke="url(#faviconGradient)" stroke-width="0.5" opacity="0.3"/>
</svg>
