<svg width="32" height="32" viewBox="0 0 32 32" fill="none" xmlns="http://www.w3.org/2000/svg">
  <!-- Background circle with gradient -->
  <defs>
    <linearGradient id="faviconGradient" x1="0%" y1="0%" x2="100%" y2="100%">
      <stop offset="0%" style="stop-color:#3b82f6;stop-opacity:1" />
      <stop offset="50%" style="stop-color:#8b5cf6;stop-opacity:1" />
      <stop offset="100%" style="stop-color:#06b6d4;stop-opacity:1" />
    </linearGradient>
  </defs>
  
  <!-- Main background circle -->
  <circle cx="16" cy="16" r="15" fill="url(#faviconGradient)" stroke="#1e293b" stroke-width="1"/>
  
  <!-- Letter P (Pixel) -->
  <path d="M8 8 L8 24 L13 24 Q18 24 18 18 Q18 12 13 12 L10 12 L10 8 Z" fill="white" opacity="0.95"/>
  <path d="M10 16 L13 16 Q15.5 16 15.5 18 Q15.5 20 13 20 L10 20 Z" fill="url(#faviconGradient)" opacity="0.8"/>
  
  <!-- Letter B (Builder) -->
  <path d="M21 8 L21 24 L26 24 Q28 24 28 22 Q28 20 26 20 L23 20 L23 16 L26 16 Q28 16 28 14 Q28 12 26 12 L21 12 Z" fill="white" opacity="0.95"/>
  <path d="M23 14 L26 14 Q27 14 27 15 Q27 16 26 16 L23 16 Z" fill="url(#faviconGradient)" opacity="0.8"/>
  <path d="M23 20 L26 20 Q27 20 27 21 Q27 22 26 22 L23 22 Z" fill="url(#faviconGradient)" opacity="0.8"/>
  
  <!-- AI Sparkles -->
  <path d="M16 4 L16.5 6 L17 4 L16.5 2 Z" fill="#fbbf24" opacity="0.9"/>
  <path d="M16 28 L16.5 30 L17 28 L16.5 26 Z" fill="#10b981" opacity="0.9"/>
  <path d="M4 16 L6 16.5 L4 17 L2 16.5 Z" fill="#ef4444" opacity="0.9"/>
  <path d="M28 16 L30 16.5 L28 17 L26 16.5 Z" fill="#8b5cf6" opacity="0.9"/>
</svg>
