<svg width="48" height="48" viewBox="0 0 48 48" fill="none" xmlns="http://www.w3.org/2000/svg">
  <!-- Background circle with gradient -->
  <defs>
    <linearGradient id="logoGradient" x1="0%" y1="0%" x2="100%" y2="100%">
      <stop offset="0%" style="stop-color:#3b82f6;stop-opacity:1" />
      <stop offset="50%" style="stop-color:#8b5cf6;stop-opacity:1" />
      <stop offset="100%" style="stop-color:#06b6d4;stop-opacity:1" />
    </linearGradient>
    <filter id="glow">
      <feGaussianBlur stdDeviation="2" result="coloredBlur"/>
      <feMerge> 
        <feMergeNode in="coloredBlur"/>
        <feMergeNode in="SourceGraphic"/>
      </feMerge>
    </filter>
  </defs>
  
  <!-- Main background circle -->
  <circle cx="24" cy="24" r="22" fill="url(#logoGradient)" stroke="#1e293b" stroke-width="2"/>
  
  <!-- Letter P (Pixel) -->
  <path d="M12 12 L12 36 L20 36 Q28 36 28 28 Q28 20 20 20 L16 20 L16 12 Z" fill="white" opacity="0.95"/>
  <path d="M16 24 L20 24 Q24 24 24 28 Q24 32 20 32 L16 32 Z" fill="url(#logoGradient)" opacity="0.8"/>
  
  <!-- Letter B (Builder) -->
  <path d="M32 12 L32 36 L40 36 Q44 36 44 32 Q44 28 40 28 L36 28 L36 24 L40 24 Q44 24 44 20 Q44 16 40 16 L32 16 Z" fill="white" opacity="0.95"/>
  <path d="M36 20 L40 20 Q42 20 42 22 Q42 24 40 24 L36 24 Z" fill="url(#logoGradient)" opacity="0.8"/>
  <path d="M36 28 L40 28 Q42 28 42 30 Q42 32 40 32 L36 32 Z" fill="url(#logoGradient)" opacity="0.8"/>
  
  <!-- AI Sparkles -->
  <g filter="url(#glow)">
    <!-- Top sparkle -->
    <path d="M24 6 L25 8 L26 6 L25 4 Z" fill="#fbbf24" opacity="0.9"/>
    <circle cx="25" cy="6" r="1" fill="#fef3c7"/>
    
    <!-- Bottom sparkle -->
    <path d="M24 42 L25 44 L26 42 L25 40 Z" fill="#10b981" opacity="0.9"/>
    <circle cx="25" cy="42" r="1" fill="#d1fae5"/>
    
    <!-- Left sparkle -->
    <path d="M6 24 L8 25 L6 26 L4 25 Z" fill="#ef4444" opacity="0.9"/>
    <circle cx="6" cy="25" r="1" fill="#fee2e2"/>
    
    <!-- Right sparkle -->
    <path d="M42 24 L44 25 L42 26 L40 25 Z" fill="#8b5cf6" opacity="0.9"/>
    <circle cx="42" cy="25" r="1" fill="#ede9fe"/>
    
    <!-- Diagonal sparkles -->
    <path d="M10 10 L11 11 L10 12 L9 11 Z" fill="#06b6d4" opacity="0.8"/>
    <path d="M38 38 L39 39 L38 40 L37 39 Z" fill="#f59e0b" opacity="0.8"/>
    <path d="M38 10 L39 11 L38 12 L37 11 Z" fill="#ec4899" opacity="0.8"/>
    <path d="M10 38 L11 39 L10 40 L9 39 Z" fill="#84cc16" opacity="0.8"/>
  </g>
  
  <!-- Pixel grid pattern overlay -->
  <g opacity="0.1">
    <rect x="16" y="16" width="2" height="2" fill="white"/>
    <rect x="20" y="16" width="2" height="2" fill="white"/>
    <rect x="24" y="16" width="2" height="2" fill="white"/>
    <rect x="28" y="16" width="2" height="2" fill="white"/>
    <rect x="32" y="16" width="2" height="2" fill="white"/>
    
    <rect x="16" y="20" width="2" height="2" fill="white"/>
    <rect x="20" y="20" width="2" height="2" fill="white"/>
    <rect x="24" y="20" width="2" height="2" fill="white"/>
    <rect x="28" y="20" width="2" height="2" fill="white"/>
    <rect x="32" y="20" width="2" height="2" fill="white"/>
    
    <rect x="16" y="24" width="2" height="2" fill="white"/>
    <rect x="20" y="24" width="2" height="2" fill="white"/>
    <rect x="24" y="24" width="2" height="2" fill="white"/>
    <rect x="28" y="24" width="2" height="2" fill="white"/>
    <rect x="32" y="24" width="2" height="2" fill="white"/>
    
    <rect x="16" y="28" width="2" height="2" fill="white"/>
    <rect x="20" y="28" width="2" height="2" fill="white"/>
    <rect x="24" y="28" width="2" height="2" fill="white"/>
    <rect x="28" y="28" width="2" height="2" fill="white"/>
    <rect x="32" y="28" width="2" height="2" fill="white"/>
    
    <rect x="16" y="32" width="2" height="2" fill="white"/>
    <rect x="20" y="32" width="2" height="2" fill="white"/>
    <rect x="24" y="32" width="2" height="2" fill="white"/>
    <rect x="28" y="32" width="2" height="2" fill="white"/>
    <rect x="32" y="32" width="2" height="2" fill="white"/>
  </g>
</svg>
